<?xml version="1.0" encoding="UTF-8" standalone="no"?>
<svg width="200px" height="200px" viewBox="0 0 200 200" version="1.1" xmlns="http://www.w3.org/2000/svg" xmlns:xlink="http://www.w3.org/1999/xlink">
    <title>Load your Facebook profile pic</title>
    <path d="M121.070964,63.5941421 C121.070964,52.5721384 111.707725,43.5046734 100,43.5046734 C88.2922749,43.5046734 78.9290362,52.5721384 78.9290362,63.5941421 C78.9290362,74.6161457 88.2922749,83.6836107 100,83.6836107 C111.707725,83.6836107 121.070964,74.6161457 121.070964,63.5941421 Z M68.9290362,63.5941421 C68.9290362,46.9761874 82.8399805,33.5046734 100,33.5046734 C117.160019,33.5046734 131.070964,46.9761874 131.070964,63.5941421 C131.070964,80.2120967 117.160019,93.6836107 100,93.6836107 C82.8399805,93.6836107 68.9290362,80.2120967 68.9290362,63.5941421 Z" id="Oval-2"></path>
    <path d="M151,167.999722 L151,144.002446 C151,127.435543 137.566402,114 120.99985,114 L79.0001503,114 C62.428294,114 49,127.43033 49,144.002446 L49,167.997554 L39.0002005,157.997554 L161,158 L161,167.996613 L151,167.999722 Z M161,167.997554 L39,167.997554 L39,144.002446 C39,121.909705 56.9032236,104 79.0001503,104 L120.99985,104 C143.091323,104 161,121.914769 161,144.002446 L161,167.997554 Z" id="Combined-Shape"></path>
</svg>