<?xml version="1.0" encoding="UTF-8" standalone="no"?>
<svg width="200px" height="200px" viewBox="0 0 200 200" version="1.1" xmlns="http://www.w3.org/2000/svg" xmlns:xlink="http://www.w3.org/1999/xlink">
    <title>Load a random photo</title>
    <polygon points="135.071068 137 105.535534 107.464466 98.4644661 114.535534 130.964466 147.035534 131 147 171 147 171 137"></polygon>
    <polygon points="47.9289322 64.0355339 77.4644661 93.5710678 84.5355339 86.5 52.0355339 54 52 54.0355339 12 54.0355339 12 64.0355339 47.9289322 64.0355339"></polygon>
    <polygon points="131 54.0355339 130.964466 54 47.9289322 137.035534 12 137.035534 12 147.035534 52 147.035534 52 146.964466 52.0710678 147.035534 135.071068 64.0355339 171 64.0355339 171 54.0355339 131 54.0355339"></polygon>
    <polygon points="159 74 159 44 189 59"></polygon>
    <polygon points="159 157 159 127 189 142"></polygon>
</svg>